<svg width="180" height="21" viewBox="0 0 180 21" fill="none" xmlns="http://www.w3.org/2000/svg">
<g clip-path="url(#clip0_29_5)">
<path d="M170.385 16.2875H167.949V3.36516H170.35C174.474 3.36516 177.061 5.85893 177.061 9.84406C177.061 13.8046 174.488 16.2875 170.385 16.2875ZM170.361 0.439815H165.013V19.2237H170.361C176.326 19.2237 180.044 15.6237 180.044 9.85499C180.044 4.04255 176.329 0.428889 170.361 0.439815ZM152.702 16.5442C148.996 16.5442 145.978 13.526 145.978 9.83314C145.978 6.11569 148.996 3.08655 152.702 3.08655C156.409 3.08655 159.449 6.11569 159.449 9.83314C159.449 13.526 156.409 16.5442 152.702 16.5442ZM152.702 19.5269C158.05 19.5269 162.432 15.1676 162.432 9.85499C162.432 4.49596 158.05 0.114777 152.713 0.114777C147.365 0.114777 143.006 4.49596 143.006 9.85499C143.009 15.1703 147.365 19.5269 152.702 19.5269ZM131.356 16.5442C127.65 16.5442 124.634 13.526 124.634 9.83314C124.634 6.11569 127.653 3.08655 131.356 3.08655C135.063 3.08655 138.103 6.11569 138.103 9.83314C138.103 13.526 135.063 16.5442 131.356 16.5442ZM131.356 19.5269C136.704 19.5269 141.086 15.1676 141.086 9.85499C141.086 4.49596 136.704 0.114777 131.367 0.114777C126.019 0.114777 121.66 4.49596 121.66 9.85499C121.663 15.1703 126.019 19.5269 131.356 19.5269ZM105.605 19.3985H105.872L110.614 8.07411L115.427 19.3985H115.694L121.66 0.439815H118.478L115.006 12.021L110.707 1.23192H110.589L106.29 12.0319L102.808 0.439815H99.6255L105.605 19.3985ZM92.7533 19.5378C96.5636 19.5378 99.4535 17.3937 99.4535 14.0614C99.4535 11.1032 97.1454 9.66925 94.1764 8.36364C91.8929 7.38579 90.1557 6.86136 90.1557 5.39186C90.1557 4.0644 91.5296 2.99095 93.2559 2.99095C94.6189 2.99095 95.9136 3.70112 96.4953 4.97123L98.6859 3.45529C97.9184 1.39308 95.9136 0.0983887 93.234 0.0983887C89.8553 0.0983887 87.1867 2.24255 87.1867 5.31812C87.1867 8.26531 89.634 9.40704 91.8356 10.3876C94.0261 11.3327 96.4953 12.3788 96.4953 14.116C96.4953 15.55 94.9002 16.5633 92.7888 16.5633C90.9834 16.5633 89.421 15.7248 88.5824 14.2553L86.2526 15.9215C87.3233 18.0929 89.6641 19.5378 92.7533 19.5378ZM80.645 0.393381V12.641L68.6541 0.114777H68.5038V19.2483H71.451V7.00066L83.4638 19.5488H83.6031V0.393381H80.645ZM65.0841 3.34331V0.439815H53.899V19.2237H65.0841V16.2875H56.8462V11.0896H63.9533V8.15332H56.8462V3.34331H65.0841ZM50.4793 3.34331V0.439815H39.2941V19.2237H50.4793V16.2875H42.2413V11.0896H49.3485V8.15332H42.2413V3.34331H50.4793ZM28.882 19.5734C32.878 19.5734 35.9891 16.4158 35.9891 12.1057V0.439815H33.0173V12.092C33.0173 14.6896 31.1654 16.5906 28.8683 16.5906C26.5712 16.5906 24.7439 14.6923 24.7439 12.092V0.439815H21.7858V12.1029C21.7858 16.4158 24.8859 19.5734 28.882 19.5734ZM2.92539 9.83314C2.92539 6.11569 5.9436 3.08655 9.65012 3.08655C13.3566 3.08655 16.3967 6.11569 16.3967 9.83314C16.3967 11.8844 15.4653 13.7254 13.9958 14.96C11.9691 12.9797 10.7099 10.4149 7.0744 10.2155L6.87774 12.7557C8.99732 12.8595 10.2565 14.5039 11.7588 16.2055C11.095 16.4268 10.3849 16.5442 9.65012 16.5442C5.9436 16.5442 2.92539 13.526 2.92539 9.83314ZM19.3794 9.85499C19.3794 4.49596 14.9982 0.114777 9.66105 0.114777C4.31294 0.114777 -0.0463867 4.49596 -0.0463867 9.85499C-0.0463867 15.1676 4.31021 19.5269 9.64739 19.5269C11.2425 19.5269 12.7585 19.1418 14.0996 18.4425C15.3123 19.3384 16.8255 20.0158 18.8878 20.1087L19.1909 17.2298C18.1421 17.1834 17.279 16.984 16.5224 16.6835C18.2841 14.9245 19.3794 12.5127 19.3794 9.85499Z" fill="#1D1D1B"/>
</g>
<defs>
<clipPath id="clip0_29_5">
<rect width="180" height="20.2124" fill="white"/>
</clipPath>
</defs>
</svg>
